<svg xmlns="http://www.w3.org/2000/svg" viewBox="0 0 65 32"><path fill="#2196f3" d="M10.016 9.983h-.002c-1.827 0-3.308 1.316-3.308 2.94v.002c0 1.624 1.481 2.94 3.308 2.94h.002c1.827 0 3.308-1.316 3.308-2.94v-.002c0-1.624-1.481-2.94-3.308-2.94zM34.434 9.043c-.005-2.255-1.015-4.417-2.81-6.012S27.398.538 24.86.533c-2.538.004-4.972.902-6.767 2.497s-2.806 3.757-2.811 6.013v12.436s19.149-1.895 19.151-12.434v-.002zM0 25.562c.005 1.569.708 3.073 1.956 4.183s2.94 1.735 4.706 1.74c1.765-.005 3.457-.63 4.705-1.739s1.952-2.613 1.957-4.182V16.91S-.001 18.23-.001 25.562zm6.662 1.55c-.345 0-.682-.091-.969-.261s-.511-.413-.643-.696-.167-.595-.099-.896.233-.577.477-.794.555-.364.893-.424c.338-.06.689-.029 1.008.088s.591.316.783.571a1.404 1.404 0 0 1 .163 1.456c-.087.189-.216.36-.378.505-.162.145-.355.259-.567.338s-.439.119-.669.119v-.006zM20.128 26.258h-1.286v1.328h-.67v-3.25h2.116v.542h-1.446v.839h1.286v.54zm3.218-.223c0 .32-.057.6-.17.842s-.275.427-.487.558c-.21.131-.451.196-.723.196a1.289 1.289 0 0 1-1.212-.748 1.907 1.907 0 0 1-.176-.83v-.161c0-.32.057-.601.172-.844a1.285 1.285 0 0 1 1.212-.756c.271 0 .511.065.721.196.211.129.374.316.489.56.116.242.174.523.174.841v.145zm-.678-.147c0-.341-.061-.6-.183-.777s-.296-.266-.522-.266a.596.596 0 0 0-.52.263c-.122.174-.184.43-.185.768v.158c0 .332.061.589.183.772s.298.275.527.275a.592.592 0 0 0 .518-.263c.121-.177.182-.434.183-.772v-.158zm2.85.846a.342.342 0 0 0-.134-.29c-.089-.068-.25-.14-.482-.214a3.465 3.465 0 0 1-.551-.223c-.369-.199-.554-.468-.554-.806 0-.176.049-.332.147-.469a.985.985 0 0 1 .426-.324c.186-.077.394-.116.625-.116.232 0 .439.042.621.127a.978.978 0 0 1 .422.355.926.926 0 0 1 .152.522h-.67a.434.434 0 0 0-.141-.346c-.094-.083-.225-.125-.395-.125-.164 0-.291.035-.382.105a.323.323 0 0 0-.136.272c0 .106.053.194.158.266.107.071.264.138.471.201.381.115.659.257.833.426s.261.381.261.634a.785.785 0 0 1-.319.663c-.213.159-.499.239-.859.239-.25 0-.478-.045-.683-.136a1.1 1.1 0 0 1-.471-.377.97.97 0 0 1-.161-.554h.672c0 .359.214.538.643.538a.631.631 0 0 0 .373-.096.318.318 0 0 0 .134-.272zm3.574-1.855h-.996v2.708h-.67v-2.708h-.982v-.542h2.647v.542zm2.339 1.299h-1.286v.871h1.509v.538h-2.179v-3.25h2.174v.542h-1.504v.775h1.286v.525zm1.82.218h-.533v1.19h-.67v-3.25h1.208c.384 0 .68.086.888.257s.312.413.312.725a.998.998 0 0 1-.145.556.979.979 0 0 1-.435.353l.703 1.328v.031h-.719l-.609-1.19zm-.534-.542h.54c.168 0 .298-.042.391-.127a.463.463 0 0 0 .138-.355.49.49 0 0 0-.132-.362c-.086-.088-.219-.132-.4-.132h-.538v.975zm4.058.587v1.145h-.67v-3.25h1.268c.244 0 .458.045.643.134a.98.98 0 0 1 .429.382c.1.164.15.35.15.56 0 .318-.109.57-.328.754-.217.183-.519.275-.904.275h-.587zm0-.542h.598c.177 0 .312-.042.404-.125.094-.083.141-.202.141-.357 0-.159-.047-.288-.141-.386s-.223-.149-.388-.152h-.614v1.02zm4.237.279h-1.286v.871h1.509v.538h-2.179v-3.25h2.174v.542h-1.504v.775h1.286v.525zm3.107-1.299h-.995v2.708h-.67v-2.708h-.982v-.542h2.647v.542zm2.339 1.299h-1.286v.871h1.509v.538h-2.178v-3.25h2.174v.542h-1.504v.775h1.286v.525zm1.819.218h-.533v1.19h-.67v-3.25h1.208c.384 0 .68.086.888.257s.313.413.313.725a.998.998 0 0 1-.145.556.979.979 0 0 1-.435.353l.703 1.328v.031h-.719l-.609-1.19zm-.533-.542h.54c.168 0 .298-.042.391-.127a.463.463 0 0 0 .138-.355.49.49 0 0 0-.132-.362c-.086-.088-.219-.132-.4-.132h-.538v.975zm3.935.88a.342.342 0 0 0-.134-.29c-.089-.068-.25-.14-.482-.214a3.465 3.465 0 0 1-.551-.223c-.369-.199-.554-.468-.554-.806 0-.176.049-.332.147-.469a.985.985 0 0 1 .426-.324c.186-.077.394-.116.625-.116.232 0 .439.042.621.127a.973.973 0 0 1 .422.355.926.926 0 0 1 .152.522h-.67a.434.434 0 0 0-.141-.346c-.094-.083-.225-.125-.395-.125-.164 0-.291.035-.382.105a.323.323 0 0 0-.136.272c0 .106.053.194.158.266.107.071.264.138.471.201.381.115.658.257.833.426s.261.381.261.634a.785.785 0 0 1-.319.663c-.213.159-.499.239-.859.239-.25 0-.478-.045-.683-.136a1.1 1.1 0 0 1-.471-.377.97.97 0 0 1-.161-.554h.672c0 .359.214.538.643.538a.634.634 0 0 0 .373-.096.318.318 0 0 0 .134-.272z"/></svg>